<svg xmlns="http://www.w3.org/2000/svg" xmlns:xlink="http://www.w3.org/1999/xlink" width="500" zoomAndPan="magnify" viewBox="0 0 375 374.999991" height="500" preserveAspectRatio="xMidYMid meet" version="1.0"><defs><clipPath id="49a4a36e48"><path d="M 269 152 L 317.660156 152 L 317.660156 290 L 269 290 Z M 269 152 " clip-rule="nonzero"/></clipPath><clipPath id="bdbcd1d215"><path d="M 198 70 L 317.660156 70 L 317.660156 167 L 198 167 Z M 198 70 " clip-rule="nonzero"/></clipPath><clipPath id="8a372e7889"><path d="M 140 242 L 259 242 L 259 337.5 L 140 337.5 Z M 140 242 " clip-rule="nonzero"/></clipPath><clipPath id="44dec101aa"><path d="M 115 37.5 L 234 37.5 L 234 133 L 115 133 Z M 115 37.5 " clip-rule="nonzero"/></clipPath><clipPath id="6cb3b32ab2"><path d="M 57.410156 208 L 176 208 L 176 304 L 57.410156 304 Z M 57.410156 208 " clip-rule="nonzero"/></clipPath><clipPath id="282191e64d"><path d="M 57.410156 85 L 105 85 L 105 223 L 57.410156 223 Z M 57.410156 85 " clip-rule="nonzero"/></clipPath></defs><g clip-path="url(#49a4a36e48)"><path fill="#ffffff" d="M 317.269531 179.796875 L 270.546875 152.820312 C 270.402344 152.738281 270.226562 152.738281 270.085938 152.820312 C 269.941406 152.90625 269.855469 153.058594 269.855469 153.222656 L 269.855469 289.246094 C 269.855469 289.410156 269.949219 289.566406 270.085938 289.644531 C 270.160156 289.6875 270.238281 289.707031 270.316406 289.707031 C 270.394531 289.707031 270.476562 289.6875 270.546875 289.644531 L 317.269531 262.667969 C 317.414062 262.585938 317.5 262.433594 317.5 262.269531 L 317.5 180.195312 C 317.5 180.035156 317.40625 179.875 317.269531 179.796875 Z M 317.269531 179.796875 " fill-opacity="1" fill-rule="nonzero"/></g><g clip-path="url(#bdbcd1d215)"><path fill="#ffffff" d="M 317.269531 112.324219 L 245.652344 70.980469 C 245.503906 70.894531 245.328125 70.894531 245.191406 70.980469 L 198.722656 97.796875 C 198.578125 97.882812 198.492188 98.035156 198.492188 98.195312 C 198.492188 98.359375 198.582031 98.519531 198.722656 98.597656 L 316.808594 166.765625 C 316.878906 166.808594 316.960938 166.828125 317.039062 166.828125 C 317.117188 166.828125 317.195312 166.808594 317.269531 166.765625 C 317.414062 166.683594 317.5 166.53125 317.5 166.367188 L 317.5 112.730469 C 317.5 112.566406 317.40625 112.410156 317.269531 112.332031 Z M 317.269531 112.324219 " fill-opacity="1" fill-rule="nonzero"/></g><path fill="#ffffff" d="M 122.316406 141.917969 C 122.171875 142.003906 122.085938 142.15625 122.085938 142.316406 C 122.085938 142.480469 122.171875 142.632812 122.316406 142.71875 L 187.082031 180.730469 C 187.152344 180.773438 187.230469 180.789062 187.316406 180.789062 C 187.402344 180.789062 187.476562 180.773438 187.546875 180.730469 L 253.050781 143.523438 C 253.195312 143.445312 253.285156 143.289062 253.285156 143.125 C 253.285156 142.960938 253.203125 142.804688 253.054688 142.722656 L 187.214844 104.710938 C 187.070312 104.628906 186.894531 104.628906 186.753906 104.710938 L 122.328125 141.917969 Z M 122.316406 141.917969 " fill-opacity="1" fill-rule="nonzero"/><g clip-path="url(#8a372e7889)"><path fill="#ffffff" d="M 258.570312 242.128906 C 258.425781 242.046875 258.25 242.046875 258.109375 242.128906 L 140.855469 309.820312 C 140.710938 309.90625 140.625 310.058594 140.625 310.222656 C 140.625 310.386719 140.71875 310.542969 140.855469 310.621094 L 187.304688 337.433594 C 187.378906 337.476562 187.457031 337.492188 187.535156 337.492188 C 187.613281 337.492188 187.691406 337.476562 187.765625 337.433594 L 258.570312 296.554688 C 258.71875 296.46875 258.800781 296.316406 258.800781 296.15625 L 258.800781 242.523438 C 258.800781 242.359375 258.710938 242.203125 258.570312 242.125 Z M 258.570312 242.128906 " fill-opacity="1" fill-rule="nonzero"/></g><path fill="#ffffff" d="M 258.109375 153.359375 L 193.003906 190.34375 C 192.855469 190.421875 192.765625 190.578125 192.765625 190.742188 L 192.226562 266.621094 C 192.226562 266.785156 192.3125 266.941406 192.457031 267.027344 C 192.527344 267.070312 192.609375 267.085938 192.691406 267.085938 C 192.777344 267.085938 192.851562 267.070312 192.921875 267.027344 L 258.570312 229.113281 C 258.71875 229.027344 258.800781 228.875 258.800781 228.710938 L 258.800781 153.765625 C 258.800781 153.601562 258.71875 153.453125 258.570312 153.367188 C 258.425781 153.28125 258.257812 153.28125 258.109375 153.367188 Z M 258.109375 153.359375 " fill-opacity="1" fill-rule="nonzero"/><g clip-path="url(#44dec101aa)"><path fill="#ffffff" d="M 115.402344 132.894531 C 115.476562 132.9375 115.554688 132.953125 115.632812 132.953125 C 115.710938 132.953125 115.789062 132.9375 115.863281 132.894531 L 184.796875 93.082031 L 233.667969 64.871094 C 233.8125 64.785156 233.898438 64.632812 233.898438 64.46875 C 233.898438 64.304688 233.808594 64.148438 233.667969 64.070312 L 187.765625 37.5625 C 187.621094 37.476562 187.445312 37.476562 187.304688 37.5625 L 115.402344 79.070312 C 115.257812 79.15625 115.171875 79.304688 115.171875 79.46875 L 115.171875 132.492188 C 115.171875 132.65625 115.261719 132.816406 115.402344 132.894531 Z M 115.402344 132.894531 " fill-opacity="1" fill-rule="nonzero"/></g><path fill="#ffffff" d="M 115.402344 229.113281 L 180.488281 266.683594 C 180.558594 266.722656 180.636719 266.742188 180.71875 266.742188 C 180.796875 266.742188 180.875 266.722656 180.949219 266.683594 C 181.09375 266.601562 181.175781 266.445312 181.183594 266.28125 L 181.722656 190.652344 C 181.722656 190.488281 181.636719 190.332031 181.492188 190.246094 L 115.867188 151.730469 C 115.722656 151.644531 115.546875 151.644531 115.402344 151.730469 C 115.257812 151.816406 115.164062 151.964844 115.164062 152.128906 L 115.164062 228.707031 C 115.164062 228.871094 115.257812 229.027344 115.394531 229.105469 Z M 115.402344 229.113281 " fill-opacity="1" fill-rule="nonzero"/><g clip-path="url(#6cb3b32ab2)"><path fill="#ffffff" d="M 175.480469 276.820312 C 175.480469 276.65625 175.390625 276.5 175.25 276.421875 L 58.257812 208.875 C 58.109375 208.789062 57.933594 208.789062 57.796875 208.875 C 57.652344 208.960938 57.566406 209.113281 57.566406 209.277344 L 57.566406 262.277344 C 57.566406 262.4375 57.65625 262.597656 57.796875 262.675781 L 128.886719 303.71875 C 128.960938 303.761719 129.039062 303.777344 129.117188 303.777344 C 129.195312 303.777344 129.273438 303.761719 129.347656 303.71875 L 175.25 277.226562 C 175.394531 277.140625 175.480469 276.992188 175.480469 276.828125 Z M 175.480469 276.820312 " fill-opacity="1" fill-rule="nonzero"/></g><g clip-path="url(#282191e64d)"><path fill="#ffffff" d="M 57.789062 195.84375 L 103.425781 222.195312 C 103.5 222.238281 103.578125 222.257812 103.65625 222.257812 C 103.734375 222.257812 103.8125 222.238281 103.886719 222.195312 C 104.03125 222.113281 104.117188 221.960938 104.117188 221.796875 L 104.117188 86.386719 C 104.117188 86.222656 104.027344 86.0625 103.886719 85.984375 C 103.742188 85.898438 103.566406 85.898438 103.425781 85.984375 L 57.789062 112.324219 C 57.644531 112.410156 57.558594 112.5625 57.558594 112.722656 L 57.558594 195.445312 C 57.558594 195.609375 57.652344 195.765625 57.789062 195.84375 Z M 57.789062 195.84375 " fill-opacity="1" fill-rule="nonzero"/></g></svg>